<svg xmlns="http://www.w3.org/2000/svg" xmlns:xlink="http://www.w3.org/1999/xlink" version="1.1" width="35" height="35" viewBox="0 0 35 35" xml:space="preserve">

<defs>
</defs>
<g style="stroke: none; stroke-width: 0; stroke-dasharray: none; stroke-linecap: butt; stroke-linejoin: miter; stroke-miterlimit: 10; fill: none; fill-rule: nonzero; opacity: 1;" transform="translate(2.689494163424115 2.6894941634240865) scale(0.34 0.34)" >
	<linearGradient id="SVGID_2" gradientUnits="userSpaceOnUse" x1="45" y1="81.6823" x2="45" y2="8.8388">
<stop offset="0%" style="stop-color:rgb(13,121,142);stop-opacity: 1"/>
<stop offset="100%" style="stop-color:rgb(78,216,223);stop-opacity: 1"/>
</linearGradient>
<path d="M 79.802 18.636 H 60.276 v -4.988 c 0 -4.26 -3.466 -7.726 -7.726 -7.726 H 37.45 c -4.26 0 -7.727 3.466 -7.727 7.726 v 4.988 H 10.199 C 4.575 18.636 0 23.211 0 28.835 V 73.88 c 0 5.623 4.575 10.198 10.199 10.198 h 69.603 C 85.425 84.078 90 79.503 90 73.88 V 28.835 C 90 23.211 85.425 18.636 79.802 18.636 z M 35.723 13.648 c 0 -0.952 0.774 -1.726 1.727 -1.726 h 15.101 c 0.951 0 1.726 0.774 1.726 1.726 v 4.988 H 35.723 V 13.648 z M 84 73.88 c 0 2.314 -1.884 4.198 -4.198 4.198 H 10.199 C 7.884 78.078 6 76.194 6 73.88 V 28.835 c 0 -2.315 1.884 -4.199 4.199 -4.199 h 22.524 h 24.553 h 22.525 c 2.314 0 4.198 1.883 4.198 4.199 V 73.88 z" style="stroke: none; stroke-width: 1; stroke-dasharray: none; stroke-linecap: butt; stroke-linejoin: miter; stroke-miterlimit: 10; fill: url(#SVGID_2); fill-rule: nonzero; opacity: 1;" transform=" matrix(1 0 0 1 0 0) " stroke-linecap="round" />
	<linearGradient id="SVGID_3" gradientUnits="userSpaceOnUse" x1="45" y1="81.6823" x2="45" y2="8.8388">
<stop offset="0%" style="stop-color:rgb(13,121,142);stop-opacity: 1"/>
<stop offset="100%" style="stop-color:rgb(78,216,223);stop-opacity: 1"/>
</linearGradient>
<path d="M 73.309 34.019 L 47.917 51.356 c -1.771 1.208 -4.063 1.209 -5.833 0 L 16.692 34.019 c -1.368 -0.936 -3.234 -0.582 -4.169 0.786 c -0.934 1.369 -0.583 3.235 0.786 4.169 L 38.7 56.312 c 1.914 1.307 4.106 1.96 6.3 1.96 s 4.387 -0.653 6.3 -1.96 l 25.392 -17.338 c 1.368 -0.934 1.721 -2.801 0.786 -4.169 C 76.543 33.437 74.678 33.083 73.309 34.019 z" style="stroke: none; stroke-width: 1; stroke-dasharray: none; stroke-linecap: butt; stroke-linejoin: miter; stroke-miterlimit: 10; fill: url(#SVGID_3); fill-rule: nonzero; opacity: 1;" transform=" matrix(1 0 0 1 0 0) " stroke-linecap="round" />
</g>
</svg>