<svg xmlns="http://www.w3.org/2000/svg" xmlns:xlink="http://www.w3.org/1999/xlink" version="1.1" width="50" height="52" viewBox="0 0 50 52" xml:space="preserve">

<defs>
</defs>
<g style="stroke: none; stroke-width: 0; stroke-dasharray: none; stroke-linecap: butt; stroke-linejoin: miter; stroke-miterlimit: 10; fill: none; fill-rule: nonzero; opacity: 1;" transform="translate(3.6856031128404645 3.685603112840436) scale(0.54 0.54)" >
	<circle cx="64.99600000000001" cy="31.506" r="2.936" style="stroke: none; stroke-width: 1; stroke-dasharray: none; stroke-linecap: butt; stroke-linejoin: miter; stroke-miterlimit: 10; fill: rgb(4,136,219); fill-rule: nonzero; opacity: 1;" transform="  matrix(1 0 0 1 0 0) "/>
	<path d="M 45.222 70.473 c -10.103 0 -18.321 -8.219 -18.321 -18.321 c 0 -10.103 8.219 -18.322 18.321 -18.322 c 10.103 0 18.322 8.219 18.322 18.322 C 63.544 62.254 55.325 70.473 45.222 70.473 z M 45.222 37.83 c -7.897 0 -14.321 6.425 -14.321 14.322 s 6.424 14.321 14.321 14.321 s 14.322 -6.424 14.322 -14.321 S 53.119 37.83 45.222 37.83 z" style="stroke: none; stroke-width: 1; stroke-dasharray: none; stroke-linecap: butt; stroke-linejoin: miter; stroke-miterlimit: 10; fill: rgb(4,136,219); fill-rule: nonzero; opacity: 1;" transform=" matrix(1 0 0 1 0 0) " stroke-linecap="round" />
	<path d="M 25.752 32.563 c -0.512 0 -1.024 -0.195 -1.414 -0.586 L 9.946 17.586 c -4.017 -4.017 -4.017 -10.553 0 -14.57 c 4.017 -4.018 10.553 -4.018 14.57 0 l 1.236 1.235 l 1.235 -1.235 c 4.017 -4.018 10.553 -4.018 14.57 0 c 4.017 4.017 4.017 10.553 0 14.57 L 27.166 31.977 C 26.775 32.368 26.263 32.563 25.752 32.563 z M 17.231 3.998 c -1.684 0 -3.266 0.656 -4.457 1.846 c -2.457 2.458 -2.457 6.456 0 8.914 l 12.978 12.977 l 12.977 -12.977 c 2.458 -2.458 2.458 -6.456 0 -8.914 c -2.458 -2.457 -6.455 -2.457 -8.914 0 l -2.65 2.65 c -0.78 0.781 -2.047 0.781 -2.828 0 l -2.65 -2.65 C 20.497 4.654 18.914 3.998 17.231 3.998 z" style="stroke: none; stroke-width: 1; stroke-dasharray: none; stroke-linecap: butt; stroke-linejoin: miter; stroke-miterlimit: 10; fill: rgb(4,136,219); fill-rule: nonzero; opacity: 1;" transform=" matrix(1 0 0 1 0 0) " stroke-linecap="round" />
	<path d="M 60.005 90.002 H 29.995 c -12.719 0 -23.068 -10.348 -23.068 -23.068 V 36.925 c 0 -6.689 2.9 -13.042 7.957 -17.43 l 2.621 3.022 c -4.18 3.627 -6.578 8.879 -6.578 14.408 v 30.009 c 0 10.514 8.554 19.067 19.067 19.067 h 30.009 c 10.514 0 19.067 -8.553 19.067 -19.067 V 36.925 c 0 -10.514 -8.553 -19.067 -19.067 -19.067 H 40.433 v -4 h 19.572 c 12.719 0 23.068 10.348 23.068 23.068 v 30.009 C 83.072 79.654 72.724 90.002 60.005 90.002 z" style="stroke: none; stroke-width: 1; stroke-dasharray: none; stroke-linecap: butt; stroke-linejoin: miter; stroke-miterlimit: 10; fill: rgb(4,136,219); fill-rule: nonzero; opacity: 1;" transform=" matrix(1 0 0 1 0 0) " stroke-linecap="round" />
</g>
</svg>