<svg xmlns="http://www.w3.org/2000/svg" xmlns:xlink="http://www.w3.org/1999/xlink" version="1.1" width="50" height="50" viewBox="0 0 50 50" xml:space="preserve">

<defs>
</defs>
<g style="stroke: none; stroke-width: 0; stroke-dasharray: none; stroke-linecap: butt; stroke-linejoin: miter; stroke-miterlimit: 10; fill: none; fill-rule: nonzero; opacity: 1;" transform="translate(0.3173717650705221 0.3173717650705221) scale(0.63 0.63)" >
	<path d="M 62.999 76.161 h -9.662 c -0.553 0 -1 -0.447 -1 -1 V 14.839 c 0 -0.552 0.447 -1 1 -1 h 9.662 c 0.553 0 1 0.448 1 1 s -0.447 1 -1 1 h -8.662 v 58.322 h 8.662 c 0.553 0 1 0.447 1 1 S 63.552 76.161 62.999 76.161 z" style="stroke: none; stroke-width: 1; stroke-dasharray: none; stroke-linecap: butt; stroke-linejoin: miter; stroke-miterlimit: 10; fill: rgb(50,167,228); fill-rule: nonzero; opacity: 1;" transform=" matrix(1 0 0 1 0 0) " stroke-linecap="round" />
	<path d="M 62.999 46 H 43.354 c -0.552 0 -1 -0.448 -1 -1 s 0.448 -1 1 -1 h 19.645 c 0.553 0 1 0.448 1 1 S 63.552 46 62.999 46 z" style="stroke: none; stroke-width: 1; stroke-dasharray: none; stroke-linecap: butt; stroke-linejoin: miter; stroke-miterlimit: 10; fill: rgb(50,167,228); fill-rule: nonzero; opacity: 1;" transform=" matrix(1 0 0 1 0 0) " stroke-linecap="round" />
	<ellipse cx="21.677" cy="22.557000000000002" rx="21.677" ry="5.207" style="stroke: none; stroke-width: 1; stroke-dasharray: none; stroke-linecap: butt; stroke-linejoin: miter; stroke-miterlimit: 10; fill: rgb(162,217,240); fill-rule: nonzero; opacity: 1;" transform=" matrix(1 0 0 1 0 0) "/>
	<path d="M 43.354 22.559 c 0 2.876 -9.705 5.207 -21.677 5.207 S 0 25.434 0 22.559 V 37.52 c 0 2.876 9.705 5.207 21.677 5.207 s 21.677 -2.331 21.677 -5.207 V 22.559 z" style="stroke: none; stroke-width: 1; stroke-dasharray: none; stroke-linecap: butt; stroke-linejoin: miter; stroke-miterlimit: 10; fill: rgb(50,167,228); fill-rule: nonzero; opacity: 1;" transform=" matrix(1 0 0 1 0 0) " stroke-linecap="round" />
	<path d="M 43.354 37.52 c 0 2.876 -9.705 5.207 -21.677 5.207 S 0 40.395 0 37.52 V 52.48 c 0 2.876 9.705 5.207 21.677 5.207 s 21.677 -2.331 21.677 -5.207 V 37.52 z" style="stroke: none; stroke-width: 1; stroke-dasharray: none; stroke-linecap: butt; stroke-linejoin: miter; stroke-miterlimit: 10; fill: rgb(162,217,240); fill-rule: nonzero; opacity: 1;" transform=" matrix(1 0 0 1 0 0) " stroke-linecap="round" />
	<path d="M 43.354 52.48 c 0 2.876 -9.705 5.207 -21.677 5.207 S 0 55.356 0 52.48 v 14.961 c 0 2.876 9.705 5.207 21.677 5.207 s 21.677 -2.331 21.677 -5.207 V 52.48 z" style="stroke: none; stroke-width: 1; stroke-dasharray: none; stroke-linecap: butt; stroke-linejoin: miter; stroke-miterlimit: 10; fill: rgb(50,167,228); fill-rule: nonzero; opacity: 1;" transform=" matrix(1 0 0 1 0 0) " stroke-linecap="round" />
	<path d="M 22.252 36.246 h -1.151 c -0.552 0 -1 -0.448 -1 -1 s 0.448 -1 1 -1 h 1.151 c 0.552 0 1 0.448 1 1 S 22.805 36.246 22.252 36.246 z" style="stroke: none; stroke-width: 1; stroke-dasharray: none; stroke-linecap: butt; stroke-linejoin: miter; stroke-miterlimit: 10; fill: rgb(46,140,204); fill-rule: nonzero; opacity: 1;" transform=" matrix(1 0 0 1 0 0) " stroke-linecap="round" />
	<path d="M 22.252 51.207 h -1.151 c -0.552 0 -1 -0.447 -1 -1 s 0.448 -1 1 -1 h 1.151 c 0.552 0 1 0.447 1 1 S 22.805 51.207 22.252 51.207 z" style="stroke: none; stroke-width: 1; stroke-dasharray: none; stroke-linecap: butt; stroke-linejoin: miter; stroke-miterlimit: 10; fill: rgb(46,140,204); fill-rule: nonzero; opacity: 1;" transform=" matrix(1 0 0 1 0 0) " stroke-linecap="round" />
	<path d="M 22.252 66.167 h -1.151 c -0.552 0 -1 -0.447 -1 -1 s 0.448 -1 1 -1 h 1.151 c 0.552 0 1 0.447 1 1 S 22.805 66.167 22.252 66.167 z" style="stroke: none; stroke-width: 1; stroke-dasharray: none; stroke-linecap: butt; stroke-linejoin: miter; stroke-miterlimit: 10; fill: rgb(46,140,204); fill-rule: nonzero; opacity: 1;" transform=" matrix(1 0 0 1 0 0) " stroke-linecap="round" />
	<path d="M 77.141 8.596 L 77.141 8.596 c 0 -1.751 -1.419 -3.17 -3.17 -3.17 h -8.532 c -1.348 0 -2.44 1.093 -2.44 2.44 v 3.899 v 12.065 c 0 1.348 1.093 2.44 2.44 2.44 h 22.12 c 1.348 0 2.44 -1.093 2.44 -2.44 v -9.624 c 0 -1.348 -1.093 -2.44 -2.44 -2.44 h -7.249 C 78.56 11.766 77.141 10.347 77.141 8.596 z" style="stroke: none; stroke-width: 1; stroke-dasharray: none; stroke-linecap: butt; stroke-linejoin: miter; stroke-miterlimit: 10; fill: rgb(254,183,86); fill-rule: nonzero; opacity: 1;" transform=" matrix(1 0 0 1 0 0) " stroke-linecap="round" />
	<path d="M 69.526 21.723 h -0.829 c -0.553 0 -1 -0.448 -1 -1 s 0.447 -1 1 -1 h 0.829 c 0.553 0 1 0.448 1 1 S 70.079 21.723 69.526 21.723 z" style="stroke: none; stroke-width: 1; stroke-dasharray: none; stroke-linecap: butt; stroke-linejoin: miter; stroke-miterlimit: 10; fill: rgb(214,148,76); fill-rule: nonzero; opacity: 1;" transform=" matrix(1 0 0 1 0 0) " stroke-linecap="round" />
	<path d="M 77.141 37.747 L 77.141 37.747 c 0 -1.751 -1.419 -3.17 -3.17 -3.17 h -8.532 c -1.348 0 -2.44 1.093 -2.44 2.44 v 3.899 v 12.065 c 0 1.348 1.093 2.44 2.44 2.44 h 22.12 c 1.348 0 2.44 -1.093 2.44 -2.44 v -9.624 c 0 -1.348 -1.093 -2.44 -2.44 -2.44 h -7.249 C 78.56 40.917 77.141 39.498 77.141 37.747 z" style="stroke: none; stroke-width: 1; stroke-dasharray: none; stroke-linecap: butt; stroke-linejoin: miter; stroke-miterlimit: 10; fill: rgb(254,183,86); fill-rule: nonzero; opacity: 1;" transform=" matrix(1 0 0 1 0 0) " stroke-linecap="round" />
	<path d="M 69.526 50.874 h -0.829 c -0.553 0 -1 -0.447 -1 -1 s 0.447 -1 1 -1 h 0.829 c 0.553 0 1 0.447 1 1 S 70.079 50.874 69.526 50.874 z" style="stroke: none; stroke-width: 1; stroke-dasharray: none; stroke-linecap: butt; stroke-linejoin: miter; stroke-miterlimit: 10; fill: rgb(214,148,76); fill-rule: nonzero; opacity: 1;" transform=" matrix(1 0 0 1 0 0) " stroke-linecap="round" />
	<path d="M 77.141 66.899 L 77.141 66.899 c 0 -1.751 -1.419 -3.17 -3.17 -3.17 h -8.532 c -1.348 0 -2.44 1.093 -2.44 2.44 v 3.899 v 12.065 c 0 1.348 1.093 2.44 2.44 2.44 h 22.12 c 1.348 0 2.44 -1.093 2.44 -2.44 v -9.624 c 0 -1.348 -1.093 -2.44 -2.44 -2.44 h -7.249 C 78.56 70.068 77.141 68.649 77.141 66.899 z" style="stroke: none; stroke-width: 1; stroke-dasharray: none; stroke-linecap: butt; stroke-linejoin: miter; stroke-miterlimit: 10; fill: rgb(254,183,86); fill-rule: nonzero; opacity: 1;" transform=" matrix(1 0 0 1 0 0) " stroke-linecap="round" />
	<path d="M 69.526 80.025 h -0.829 c -0.553 0 -1 -0.447 -1 -1 s 0.447 -1 1 -1 h 0.829 c 0.553 0 1 0.447 1 1 S 70.079 80.025 69.526 80.025 z" style="stroke: none; stroke-width: 1; stroke-dasharray: none; stroke-linecap: butt; stroke-linejoin: miter; stroke-miterlimit: 10; fill: rgb(214,148,76); fill-rule: nonzero; opacity: 1;" transform=" matrix(1 0 0 1 0 0) " stroke-linecap="round" />
</g>
</svg>